<?xml version="1.0" encoding="utf-8"?>
<!-- Generator: Adobe Illustrator 18.1.1, SVG Export Plug-In . SVG Version: 6.00 Build 0)  -->
<svg version="1.1" id="图层_1" xmlns="http://www.w3.org/2000/svg" xmlns:xlink="http://www.w3.org/1999/xlink" x="0px" y="0px"
	 viewBox="0 0 23 12" enable-background="new 0 0 23 12" xml:space="preserve">
<g>
	<path d="M11.8,4.4c-0.4,0-0.7,0.1-0.9,0.4s-0.4,0.6-0.4,1h2.6c0-0.4-0.1-0.7-0.3-0.9C12.6,4.6,12.2,4.4,11.8,4.4z"/>
	<path d="M5.3,1.4L1,6.4l4.3,4H21v-9H5.3z M9.1,8.5H8.4V5.7c0-0.3,0-0.6-0.1-0.7S8.1,4.7,7.9,4.6C7.8,4.5,7.6,4.5,7.4,4.5
		C7,4.5,6.8,4.6,6.5,4.8S6.1,5.4,6.1,6v2.5H5.3V3.9h0.7v0.7C6.4,4,6.9,3.8,7.5,3.8c0.3,0,0.5,0.1,0.8,0.2C8.6,4,8.7,4.2,8.9,4.3
		s0.2,0.4,0.2,0.6c0,0.1,0,0.4,0,0.8V8.5z M13.9,6.4h-3.5c0,0.5,0.2,0.9,0.4,1.2s0.6,0.4,1,0.4c0.3,0,0.5-0.1,0.7-0.2S13,7.4,13.1,7
		l0.8,0.1c-0.1,0.5-0.4,0.8-0.7,1.1c-0.3,0.3-0.8,0.4-1.3,0.4c-0.7,0-1.2-0.2-1.6-0.6C9.8,7.6,9.6,7,9.6,6.3c0-0.8,0.2-1.4,0.6-1.8
		s0.9-0.7,1.6-0.7c0.6,0,1.1,0.2,1.5,0.6s0.6,1,0.6,1.8C13.9,6.3,13.9,6.3,13.9,6.4z M18.8,8.5H18l-0.7-2.8L17.1,5l-0.9,3.6h-0.8
		l-1.4-4.7h0.8l0.7,2.7l0.3,1c0,0,0.1-0.4,0.2-1l0.7-2.7h0.8l0.7,2.7l0.2,0.9l0.3-0.9l0.8-2.7h0.8L18.8,8.5z"/>
</g>
</svg>
